<svg width="512" height="512" xmlns="http://www.w3.org/2000/svg">

 <g>
  <title>background</title>
  <rect fill="none" id="canvas_background" height="402" width="582" y="-1" x="-1"/>
 </g>
 <g>
  <title>Layer 1</title>
  <path fill="#ffffff" id="svg_1" d="m459.406,132.927l-128.533,-128.533c-2.812,-2.813 -6.628,-4.394 -10.606,-4.394l-216.9,0c-30.419,0 -55.167,24.748 -55.167,55.166l0,401.667c0,30.419 24.748,55.167 55.166,55.167l305.268,0c30.419,0 55.166,-24.748 55.166,-55.167l0,-313.3c0,-3.978 -1.58,-7.793 -4.394,-10.606zm-124.139,-81.714l77.319,77.32l-52.152,0c-13.877,0 -25.167,-11.29 -25.167,-25.167l0,-52.153zm73.367,430.787l-305.268,0c-13.876,0 -25.166,-11.29 -25.166,-25.167l0,-401.667c0,-13.876 11.29,-25.166 25.166,-25.166l201.9,0l0,73.366c0,30.419 24.748,55.167 55.167,55.167l73.367,0l0,298.3c0,13.877 -11.289,25.167 -25.166,25.167z"/>
  <path fill="#ffffff" id="svg_2" d="m192.73144,223.93456l-64.267,0c-8.284,0 -15,6.716 -15,15l0,64.267c0,8.284 6.716,15 15,15l64.267,0c8.284,0 15,-6.716 15,-15l0,-64.268c0,-8.284 -6.715,-14.999 -15,-14.999zm-15,64.267l-34.267,0l0,-34.268l34.267,0l0,34.268z"/>
  <path fill="#ffffff" id="svg_3" d="m192.73144,352.46856l-64.267,0c-8.284,0 -15,6.716 -15,15l0,64.267c0,8.284 6.716,15 15,15l64.267,0c8.284,0 15,-6.716 15,-15l0,-64.267c0,-8.284 -6.715,-15 -15,-15zm-15,64.266l-34.267,0l0,-34.267l34.267,0l0,34.267z"/>
  <path fill="#ffffff" id="svg_4" d="m241.99844,238.93456c0,8.284 6.716,15 15,15l64.267,0c8.284,0 15,-6.716 15,-15s-6.716,-15 -15,-15l-64.267,0c-8.284,0 -15,6.715 -15,15z"/>
  <path fill="#ffffff" id="svg_5" d="m385.53144,288.20156l-128.533,0c-8.284,0 -15,6.716 -15,15s6.716,15 15,15l128.533,0c8.284,0 15,-6.716 15,-15s-6.716,-15 -15,-15z"/>
  <path fill="#ffffff" id="svg_6" d="m256,383.467l64.267,0c8.284,0 15,-6.716 15,-15s-6.716,-15 -15,-15l-64.267,0c-8.284,0 -15,6.716 -15,15s6.716,15 15,15z"/>
  <path fill="#ffffff" id="svg_7" d="m384.533,417.733l-128.533,0c-8.284,0 -15,6.716 -15,15s6.716,15 15,15l128.533,0c8.284,0 15,-6.716 15,-15s-6.716,-15 -15,-15z"/>
  <path fill="#ffffff" id="svg_8" d="m128.46544,109.33456l80.333,0c8.284,0 15,-6.716 15,-15s-6.716,-15 -15,-15l-80.333,0c-8.284,0 -15,6.716 -15,15s6.716,15 15,15z"/>
  <path fill="#ffffff" id="svg_9" d="m128.46544,173.60156l128.533,0c8.284,0 15,-6.716 15,-15s-6.716,-15 -15,-15l-128.533,0c-8.284,0 -15,6.716 -15,15s6.716,15 15,15z"/>
 </g>
</svg>